# xmcd CD database file
#
# Track frame offsets:
#	150
#	19745
#	37468
#	55968
#	69198
#	86635
#	109740
#	127263
#	141285
#	164918
#
# Disc length: 2356 seconds
#
# Revision: 2
# Processed by: cddbd v1.5.1PL2 Copyright (c) Steve Scherf et al.
# Submitted via: CDex 1.51
#
DISCID=9909320a
DTITLE=Pino Daniele - Musicante
DYEAR=1994
DGENRE=Blues
TTITLE0=Kepp on movin'
TTITLE1=Just in mi
TTITLE2=Disperazione
TTITLE3=Lassa che vene
TTITLE4=Io ci sarò
TTITLE5=Oi né'
TTITLE6=Stella nera
TTITLE7=Santa Teresa
TTITLE8=Acchiappa acchiappa
TTITLE9=Lazzari felici
EXTD=1994 CGD YEAR: 1994
EXTT0=
EXTT1=
EXTT2=
EXTT3=
EXTT4=
EXTT5=
EXTT6=
EXTT7=
EXTT8=
EXTT9=
PLAYORDER=
